<svg width="438" height="80" viewBox="0 0 438 80" fill="none" xmlns="http://www.w3.org/2000/svg">
<path d="M9.664 59.768V54.008H3.84V18.616H10.304V53.368H27.072V47.544H33.6V54.008H27.712V59.768H9.664ZM45.2265 59.768V54.008H39.4025V36.024H45.2265V30.2H63.2745V36.024H69.1625V54.008H63.2745V59.768H45.2265ZM45.8665 53.368H62.6345V36.6H45.8665V53.368ZM76.9025 59.768V53.368H100.135V48.184H82.7265V42.36H76.9025V36.024H82.7265V30.2H106.663V36.6H83.3665V41.72H100.775V47.544H106.663V54.008H100.775V59.768H76.9025ZM125.987 59.768V54.008H120.227V36.6H114.403V30.2H120.227V18.616H126.627V30.2H144.163V36.6H126.627V53.368H143.523V47.544H149.987V54.008H144.163V59.768H125.987ZM310.237 59.768V25.08H305.117V30.84H298.653V24.44H304.477V18.616H322.525V24.44H328.413V30.84H321.885V25.08H316.765V59.768H310.237ZM335.602 59.768V54.008H329.778V36.024H335.602V30.2H353.65V36.024H359.538V42.36H353.01V36.6H336.242V41.72H347.89V48.184H336.242V53.368H353.01V47.48H359.538V53.944H353.65V59.768H335.602ZM373.102 59.768V54.008H367.278V36.024H373.102V30.2H391.15V36.024H397.038V42.36H390.51V36.6H373.742V53.368H390.51V47.544H397.038V54.008H391.15V59.768H373.102ZM403.528 59.768V18.616H409.992V36.024H415.112V30.2H427.4V36.024H433.288V59.768H426.76V36.6H415.752V42.36H409.992V59.768H403.528Z" fill="url(#paint0_linear_1_118)"/>
<rect x="167" y="45" width="3" height="3" fill="#FBFF00" fill-opacity="0.21"/>
<rect x="176" y="23" width="3" height="3" fill="#FBFF00" fill-opacity="0.21"/>
<rect x="180" y="36" width="3" height="3" fill="#FBFF00" fill-opacity="0.21"/>
<rect x="181" y="55" width="3" height="3" fill="#FBFF00" fill-opacity="0.21"/>
<rect x="176" y="45" width="3" height="3" fill="#FBFF00" fill-opacity="0.21"/>
<rect x="172" y="58" width="3" height="3" fill="#FBFF00" fill-opacity="0.21"/>
<rect x="199" y="38" width="3" height="3" fill="#AA0000"/>
<rect x="199" y="38" width="3" height="3" fill="#AA0000"/>
<rect x="197" y="41" width="3" height="3" fill="#AA0000"/>
<rect x="187" y="38" width="3" height="3" fill="#F54900" fill-opacity="0.38"/>
<rect x="186" y="43" width="3" height="3" fill="#F54900" fill-opacity="0.38"/>
<rect x="188" y="50" width="3" height="3" fill="#F54900" fill-opacity="0.38"/>
<rect x="191" y="41" width="3" height="3" fill="#F54900" fill-opacity="0.38"/>
<rect x="192" y="45" width="3" height="3" fill="#F54900" fill-opacity="0.38"/>
<rect x="194" y="37" width="3" height="3" fill="#AA0000"/>
<rect x="194" y="37" width="3" height="3" fill="#AA0000"/>
<rect x="185" y="33" width="3" height="3" fill="#F54900" fill-opacity="0.38"/>
<rect x="199" y="44" width="3" height="3" fill="#AA0000"/>
<rect x="196" y="47" width="3" height="3" fill="#AA0000"/>
<rect x="191" y="33" width="3" height="3" fill="#F54900" fill-opacity="0.38"/>
<rect x="182" y="48" width="3" height="3" fill="#FBFF00" fill-opacity="0.21"/>
<rect x="258" y="35" width="8" height="8" fill="black"/>
<rect x="266" y="35" width="8" height="8" fill="black"/>
<path d="M227.258 69.2561L219.258 77.2561V69.2561H227.258Z" fill="#99BB11"/>
<path d="M235.258 61.2561L227.258 69.2561V61.2561H235.258Z" fill="#99BB11"/>
<path d="M243.258 53.2561L235.258 61.2561V53.2561H243.258Z" fill="#99BB11"/>
<rect x="245.467" y="55.4653" width="33.9439" height="3.12706" transform="rotate(135 245.467 55.4653)" fill="#99BB11"/>
<rect x="240.383" y="56.1297" width="26.3755" height="3.12706" transform="rotate(135 240.383 56.1297)" fill="#99BB11"/>
<path d="M227.004 13.2112L219.004 5.21118V13.2112H227.004Z" fill="#99BB11"/>
<path d="M235.004 21.2112L227.004 13.2112V21.2112H235.004Z" fill="#99BB11"/>
<path d="M243.004 29.2112L235.004 21.2112V29.2112H243.004Z" fill="#99BB11"/>
<rect width="33.9439" height="3.12706" transform="matrix(-0.707107 -0.707107 -0.707107 0.707107 245.213 27.002)" fill="#99BB11"/>
<rect width="26.3755" height="3.12706" transform="matrix(-0.707107 -0.707107 -0.707107 0.707107 240.128 26.3376)" fill="#99BB11"/>
<rect x="234" y="26" width="8" height="8" fill="#43A147"/>
<rect x="234" y="50" width="8" height="8" fill="#43A147"/>
<rect x="242" y="26" width="8" height="8" fill="#43A147"/>
<path d="M226 26V34H218L226 26Z" fill="#43A147"/>
<path d="M202 40L210 38V46L202 44V40Z" fill="black"/>
<path d="M204 39.5L210 38V46L204 44.5V42V39.5Z" fill="#99BB11"/>
<rect x="186" y="58" width="8" height="8" fill="#43A147"/>
<path d="M202 26L210 34H202V26Z" fill="#99BB11"/>
<rect x="186" y="18" width="8" height="8" fill="#43A147"/>
<rect x="194" y="26" width="8" height="8" fill="#99BB11"/>
<path d="M202 50H210L202 58V50Z" fill="#99BB11"/>
<path d="M202 50H210L202 58V50Z" fill="#99BB11"/>
<rect x="194" y="50" width="8" height="8" fill="#99BB11"/>
<path d="M218 50H226V58L218 50Z" fill="#43A147"/>
<rect x="242" y="50" width="8" height="8" fill="#43A147"/>
<rect x="250" y="26" width="8" height="8" fill="#43A147"/>
<rect x="226" y="26" width="8" height="8" fill="#43A147"/>
<rect x="226" y="50" width="8" height="8" fill="#43A147"/>
<rect x="250" y="50" width="8" height="8" fill="#43A147"/>
<path d="M256 29H260L264 33V37H256V29Z" fill="#99BB11"/>
<path d="M254 46H262V50L258 54H254V46Z" fill="#99BB11"/>
<path d="M226 42H234V54L226 50V48V42Z" fill="#99BB11"/>
<path d="M218 42H226V50H218V48V46V42Z" fill="#99BB11"/>
<path d="M274 38L282 42L274 46V38Z" fill="#99BB11"/>
<rect x="210" y="42" width="8" height="8" fill="#99BB11"/>
<rect x="234" y="42" width="8" height="12" fill="#99BB11"/>
<rect x="242" y="42" width="8" height="12" fill="#99BB11"/>
<rect x="250" y="42" width="8" height="12" fill="#99BB11"/>
<rect x="258" y="42" width="8" height="8" fill="#99BB11"/>
<path d="M266 42H274V46L266 50V42Z" fill="#99BB11"/>
<rect x="210" y="34" width="8" height="8" fill="#99BB11"/>
<rect x="234" y="29" width="8" height="13" fill="#99BB11"/>
<rect x="242" y="29" width="8" height="13" fill="#99BB11"/>
<rect x="250" y="29" width="8" height="13" fill="#99BB11"/>
<path d="M226 34L234 29V42H226V35.5V34Z" fill="#99BB11"/>
<rect x="218" y="34" width="8" height="8" fill="#99BB11"/>
<rect x="253" y="37" width="3" height="5" fill="black"/>
<rect x="248" y="37" width="3" height="5" fill="black"/>
<rect x="243" y="37" width="3" height="5" fill="black"/>
<rect x="238" y="37" width="3" height="5" fill="black"/>
<rect x="233" y="37" width="3" height="5" fill="black"/>
<defs>
<linearGradient id="paint0_linear_1_118" x1="0" y1="38.5" x2="438" y2="38.5" gradientUnits="userSpaceOnUse">
<stop stop-color="#99BB11"/>
<stop offset="1" stop-color="#43A147"/>
</linearGradient>
</defs>
</svg>
